<?xml version="1.0" encoding="UTF-8"?>
<!DOCTYPE svg PUBLIC "-//W3C//DTD SVG 1.1//EN" "http://www.w3.org/Graphics/SVG/1.1/DTD/svg11.dtd">
<svg version="1.1" id="Layer_1" xmlns="http://www.w3.org/2000/svg" xmlns:xlink="http://www.w3.org/1999/xlink" x="0px" y="0px" width="100px" height="100px" xml:space="preserve">
<g id="sun">
	<path d="M4.408728476930472e-15,-72A72,72 0 0,1 14.04650318516124,-70.61654018903259L15.607225761290266,-78.46282243225843L22.776075969021825,-85.001472713438A88,88 0 0,1 28.28667294667821,-83.3298513955693L30.61467458920717,-73.91036260090294L27.553207130286452,-66.51932634081265A72,72 0 0,1 40.00105677741135,-59.86581208578326L44.44561864156817,-66.51756898420362L53.571005752767405,-69.8150939456287A88,88 0 0,1 58.02243172880605,-66.16190305815002L56.5685424949238,-56.568542494923804L50.91168824543142,-50.91168824543143A72,72 0 0,1 59.865812085783254,-40.001056777411364L66.51756898420362,-44.44561864156818L76.2102355330306,-44A88,88 0 0,1 78.92480125487657,-38.92140473927212L73.91036260090294,-30.614674589207187L66.51932634081264,-27.553207130286467A72,72 0 0,1 70.61654018903259,-14.046503185161242L78.46282243225843,-15.60722576129027L87.24714780089532,-11.486304915364551A88,88 0 0,1 87.8115852449971,-5.755475372252602L80,-1.1102230246251565e-14L72,-9.992007221626409e-15A72,72 0 0,1 70.61654018903259,14.046503185161226L78.46282243225843,15.607225761290252L85.001472713438,22.776075969021814A88,88 0 0,1 83.3298513955693,28.286672946678205L73.91036260090294,30.61467458920717L66.51932634081265,27.553207130286452A72,72 0 0,1 59.86581208578326,40.00105677741135L66.51756898420362,44.44561864156817L69.8150939456287,53.5710057527674A88,88 0 0,1 66.16190305815002,58.02243172880605L56.568542494923804,56.5685424949238L50.91168824543143,50.91168824543142A72,72 0 0,1 40.00105677741137,59.86581208578325L44.44561864156819,66.5175689842036L44.00000000000001,76.2102355330306A88,88 0 0,1 38.92140473927213,78.92480125487657L30.6146745892072,73.91036260090293L27.55320713028648,66.51932634081264A72,72 0 0,1 14.046503185161253,70.61654018903259L15.607225761290282,78.46282243225843L11.48630491536457,87.24714780089532A88,88 0 0,1 5.7554753722526275,87.8115852449971L4.042572398459442e-14,80L3.638315158613498e-14,72A72,72 0 0,1 -14.0465031851612,70.6165401890326L-15.607225761290222,78.46282243225845L-22.776075969021775,85.00147271343802A88,88 0 0,1 -28.286672946678166,83.32985139556932L-30.614674589207127,73.91036260090297L-27.553207130286413,66.51932634081267A72,72 0 0,1 -40.001056777411314,59.86581208578329L-44.44561864156813,66.51756898420365L-53.57100575276736,69.81509394562875A88,88 0 0,1 -58.022431728806,66.16190305815006L-56.56854249492375,56.56854249492386L-50.91168824543137,50.91168824543147A72,72 0 0,1 -59.865812085783226,40.00105677741141L-66.51756898420358,44.44561864156823L-76.21023553303057,44.00000000000007A88,88 0 0,1 -78.92480125487654,38.921404739272184L-73.91036260090291,30.614674589207254L-66.51932634081263,27.553207130286527A72,72 0 0,1 -70.61654018903258,14.046503185161322L-78.46282243225842,15.607225761290358L-87.2471478008953,11.486304915364654A88,88 0 0,1 -87.81158524499709,5.75547537225271L-80,1.1637858475719386e-13L-72,1.0474072628147447e-13A72,72 0 0,1 -70.61654018903262,-14.046503185161116L-78.46282243225846,-15.60722576129013L-85.00147271343805,-22.77607596902168A88,88 0 0,1 -83.32985139556935,-28.286672946678067L-73.910362600903,-30.61467458920704L-66.5193263408127,-27.553207130286335A72,72 0 0,1 -59.86581208578335,-40.00105677741123L-66.51756898420372,-44.44561864156803L-69.81509394562882,-53.57100575276726A88,88 0 0,1 -66.16190305815014,-58.02243172880591L-56.56854249492394,-56.56854249492366L-50.91168824543155,-50.9116882454313A72,72 0 0,1 -40.00105677741152,-59.865812085783155L-44.44561864156835,-66.5175689842035L-44.00000000000016,-76.2102355330305A88,88 0 0,1 -38.92140473927226,-78.9248012548765L-30.614674589207294,-73.9103626009029L-27.553207130286566,-66.51932634081261A72,72 0 0,1 -14.046503185161326,-70.61654018903258L-15.607225761290362,-78.46282243225842L-11.486304915364618,-87.2471478008953A88,88 0 0,1 -5.755475372252638,-87.8115852449971L-1.4695761589768237e-14,-80L-1.3226185430791413e-14,-72M0,-20A20,20 0 0,0 0,20A20,20 0 0,0 0,-20Z"> 
	</path>
</g>
</svg>