<?xml version="1.0" encoding="UTF-8"?>
<!DOCTYPE svg PUBLIC "-//W3C//DTD SVG 1.1//EN" "http://www.w3.org/Graphics/SVG/1.1/DTD/svg11.dtd">
<svg version="1.1" id="Layer_1" xmlns="http://www.w3.org/2000/svg" xmlns:xlink="http://www.w3.org/1999/xlink" x="0px" y="0px" width="960px" height="500px" viewBox="0 0 509 716.105" enable-background="new 0 0 509 716.105" xml:space="preserve">
<g id="annulus">
	<path d="M16.018004829700015,-407.6854467862149A408,408 0 0,1 32.01131105696076,-406.7422721631162L31.383638291138,-398.7669334932512L35.86863451605379,-390.3555316092674A392,392 0 0,1 40.97515760092024,-389.85258298436315L47.014958983135166,-397.2273827819705L47.955258162797875,-405.17193043760994A408,408 0 0,1 63.825261736414305,-402.9768429628162L62.573786016092455,-395.07533623805506L66.38500550881778,-386.33797515076645A392,392 0 0,1 71.43632599292197,-385.4359237650702L78.0361288064515,-392.31411216129214L79....406.74227216311675L-31.383638291131145,-398.7669334932517L-25.638026658209352,-391.160697909533A392,392 0 0,1 -20.515694847227216,-391.46277762379333L-15.703926303620506,-399.69161449628945L-16.018004829692917,-407.6854467862152A408,408 0 0,1 7.172587520645204e-12,-408L7.031948549652161e-12,-400L5.13112146397394,-391.96641640901066A392,392 0 0,1 10.261363736693223,-391.8656713904183L15.703926303634558,-399.6916144962889L16.018004829707248,-407.6854467862147M0,-420A420,420 0 0,0 0,420A420,420 0 0,0 0,-420Z">
</g>
<g id="sun">
	<path d="M4.408728476930472e-15,-72A72,72 0 0,1 14.04650318516124,-70.61654018903259L15.607225761290266,-78.46282243225843L22.776075969021825,-85.001472713438A88,88 0 0,1 28.28667294667821,-83.3298513955693L30.61467458920717,-73.91036260090294L27.553207130286452,-66.51932634081265A72,72 0 0,1 40.00105677741135,-59.86581208578326L44.44561864156817,-66.51756898420362L53.571005752767405,-69.8150939456287A88,88 0 0,1 58.02243172880605,-66.16190305815002L56.5685424949238,-56.568542494923804L50.91168824543142,-50.9116882....00105677741152,-59.865812085783155L-44.44561864156835,-66.5175689842035L-44.00000000000016,-76.2102355330305A88,88 0 0,1 -38.92140473927226,-78.9248012548765L-30.614674589207294,-73.9103626009029L-27.553207130286566,-66.51932634081261A72,72 0 0,1 -14.046503185161326,-70.61654018903258L-15.607225761290362,-78.46282243225842L-11.486304915364618,-87.2471478008953A88,88 0 0,1 -5.755475372252638,-87.8115852449971L-1.4695761589768237e-14,-80L-1.3226185430791413e-14,-72M0,-20A20,20 0 0,0 0,20A20,20 0 0,0 0,-20Z">
</g>
<g id="planet">
	<path d="M9.307315673519884e-15,-152A152,152 0 0,1 14.898605330093236,-151.26807845417392L15.682742452729723,-159.2295562675515L21.92840029296869,-166.56273671080015A168,168 0 0,1 27.366439530290922,-165.75607979025966L31.214451522580532,-156.92564486451687L29.653728946451505,-149.079362621291A152,152 0 0,1 44.123270942678275,-145.45493103129576L46.44554836071397,-153.11045371715343L54.00183017093113,-159.08426175517775A168,168 0 0,1 59.178008050767204,-157.23219569523073L61.22934917841434,-147.82072520180589L58.16...-145.45493103129596L-46.4455483607133,-153.11045371715363L-43.481599577222745,-162.27553881656365A168,168 0 0,1 -38.14881218977392,-163.61133251859223L-31.214451522579747,-156.92564486451704L-29.65372894645076,-149.07936262129118A152,152 0 0,1 -14.898605330092515,-151.268078454174L-15.682742452728963,-159.22955626755157L-10.987725710663234,-167.64029910408544A168,168 0 0,1 -5.496805914057559,-167.91005069602946L8.232597597325838e-13,-160L7.820967717459546e-13,-152M0,-20A20,20 0 0,0 0,20A20,20 0 0,0 0,-20Z">
</g>
</svg>