<?xml version="1.0" encoding="UTF-8"?>
<!DOCTYPE svg PUBLIC "-//W3C//DTD SVG 1.1//EN" "http://www.w3.org/Graphics/SVG/1.1/DTD/svg11.dtd">
<svg version="1.1" id="Layer_1" xmlns="http://www.w3.org/2000/svg" xmlns:xlink="http://www.w3.org/1999/xlink" x="0px" y="0px" width="100px" height="100px" xml:space="preserve">
<g id="planet">
	<path d="M9.307315673519884e-15,-152A152,152 0 0,1 14.898605330093236,-151.26807845417392L15.682742452729723,-159.2295562675515L21.92840029296869,-166.56273671080015A168,168 0 0,1 27.366439530290922,-165.75607979025966L31.214451522580532,-156.92564486451687L29.653728946451505,-149.079362621291A152,152 0 0,1 44.123270942678275,-145.45493103129576L46.44554836071397,-153.11045371715343L54.00183017093113,-159.08426175517775A168,168 0 0,1 59.178008050767204,-157.23219569523073L61.22934917841434,-147.82072520180589L58.16788171949362,-140.4296889417156A152,152 0 0,1 71.6523039975516,-134.05203218095L75.42347789215958,-141.10740229573682L83.99999999999996,-145.49226783578573A168,168 0 0,1 88.71539890926176,-142.6659664964653L88.89123728313629,-133.03513796840727L84.44667541897948,-126.38338106998691A152,152 0 0,1 96.42777919287407,-117.49758891113606L101.50292546618323,-123.68167253803796L110.77009693681151,-126.30908765646825A168,168 0 0,1 114.84350673984231,-122.61716421323645L113.13708498984754,-113.13708498984766L107.48023074035517,-107.48023074035528A152,152 0 0,1 117.49758891113598,-96.42777919287418L123.68167253803787,-101.50292546618334L133.28336116892746,-102.27192007346514A168,168 0 0,1 136.5582430113913,-97.85625307379084L133.03513796840718,-88.89123728313643L126.38338106998683,-84.44667541897961A152,152 0 0,1 134.0520321809499,-71.65230399755173L141.10740229573676,-75.42347789215971L150.6746205774916,-74.30449995679231A168,168 0 0,1 153.0251225867575,-69.3347810071384L147.82072520180583,-61.22934917841445L140.42968894171554,-58.16788171949373A152,152 0 0,1 145.45493103129573,-44.12327094267837L153.1104537171534,-46.44554836071407L162.27553881656343,-43.481599577223584A168,168 0 0,1 163.61133251859204,-38.148812189774794L156.92564486451684,-31.214451522580617L149.079362621291,-29.653728946451587A152,152 0 0,1 151.26807845417392,-14.898605330093302L159.2295562675515,-15.682742452729793L167.6402991040854,-10.98772571066414A168,168 0 0,1 167.91005069602943,-5.496805914058496L160,-9.992007221626409e-14L152,-9.492406860545088e-14A152,152 0 0,1 151.26807845417395,14.898605330093117L159.22955626755152,15.682742452729597L166.56273671080015,21.92840029296856A168,168 0 0,1 165.7560797902597,27.366439530290805L156.9256448645169,31.214451522580422L149.07936262129104,29.653728946451402A152,152 0 0,1 145.45493103129579,44.12327094267818L153.11045371715346,46.44554836071387L159.0842617551778,54.00183017093104A168,168 0 0,1 157.23219569523076,59.178008050767126L147.8207252018059,61.22934917841427L140.42968894171563,58.16788171949355A152,152 0 0,1 134.05203218095,71.65230399755156L141.10740229573685,75.42347789215954L145.49226783578575,83.9999999999999A168,168 0 0,1 142.6659664964653,88.71539890926172L133.0351379684073,88.89123728313626L126.38338106998692,84.44667541897945A152,152 0 0,1 117.49758891113609,96.42777919287403L123.68167253803799,101.50292546618319L126.30908765646828,110.77009693681147A168,168 0 0,1 122.61716421323648,114.84350673984227L113.1370849898477,113.13708498984751L107.48023074035531,107.48023074035513A152,152 0 0,1 96.42777919287421,117.49758891113594L101.50292546618338,123.68167253803783L102.27192007346518,133.28336116892743A168,168 0 0,1 97.85625307379087,136.55824301139126L88.89123728313648,133.03513796840716L84.44667541897965,126.3833810699868A152,152 0 0,1 71.65230399755178,134.05203218094988L75.42347789215978,141.10740229573673L74.30449995679238,150.67462057749157A168,168 0 0,1 69.33478100713849,153.02512258675745L61.22934917841454,147.8207252018058L58.167881719493806,140.4296889417155A152,152 0 0,1 44.12327094267847,145.4549310312957L46.44554836071418,153.11045371715335L43.4815995772237,162.27553881656343A168,168 0 0,1 38.14881218977492,163.611332518592L31.21445152258074,156.92564486451684L29.653728946451704,149.07936262129098A152,152 0 0,1 14.898605330093437,151.2680784541739L15.682742452729935,159.22955626755146L10.987725710664293,167.64029910408536A168,168 0 0,1 5.4968059140586565,167.91005069602943L2.584871319092139e-13,160L2.455627753137532e-13,152A152,152 0 0,1 -14.89860533009295,151.26807845417395L-15.682742452729421,159.22955626755152L-21.92840029296837,166.56273671080018A168,168 0 0,1 -27.36643953029061,165.75607979025972L-31.214451522580234,156.92564486451693L-29.653728946451224,149.07936262129107A152,152 0 0,1 -44.123270942678,145.4549310312958L-46.44554836071368,153.1104537171535L-54.00183017093083,159.08426175517786A168,168 0 0,1 -59.178008050766906,157.23219569523084L-61.229349178414054,147.820725201806L-58.16788171949335,140.4296889417157A152,152 0 0,1 -71.65230399755134,134.0520321809501L-75.42347789215931,141.10740229573696L-83.99999999999972,145.49226783578584A168,168 0 0,1 -88.71539890926157,142.66596649646542L-88.89123728313614,133.03513796840738L-84.44667541897932,126.38338106998701A152,152 0 0,1 -96.42777919287393,117.49758891113616L-101.50292546618309,123.68167253803806L-110.7700969368114,126.30908765646835A168,168 0 0,1 -114.84350673984224,122.61716421323653L-113.1370849898475,113.13708498984772L-107.48023074035511,107.48023074035534A152,152 0 0,1 -117.49758891113594,96.42777919287421L-123.68167253803783,101.50292546618338L-133.28336116892743,102.27192007346517A168,168 0 0,1 -136.5582430113913,97.85625307379084L-133.0351379684072,88.8912372831364L-126.38338106998684,84.44667541897958A152,152 0 0,1 -134.05203218094994,71.65230399755167L-141.1074022957368,75.42347789215965L-150.67462057749162,74.30449995679221A168,168 0 0,1 -153.02512258675756,69.33478100713829L-147.82072520180589,61.22934917841431L-140.4296889417156,58.16788171949359A152,152 0 0,1 -145.45493103129579,44.12327094267822L-153.11045371715346,46.445548360713914L-162.27553881656348,43.481599577223385A168,168 0 0,1 -163.6113325185921,38.14881218977457L-156.9256448645169,31.21445152258037L-149.07936262129107,29.653728946451352A152,152 0 0,1 -151.26807845417395,14.898605330093044L-159.22955626755152,15.68274245272952L-167.64029910408541,10.98772571066382A168,168 0 0,1 -167.91005069602943,5.496805914058145L-160,-2.646227455176824e-13L-152,-2.513916082417983e-13A152,152 0 0,1 -151.2680784541739,-14.898605330093478L-159.22955626755146,-15.682742452729975L-166.5627367108001,-21.92840029296899A168,168 0 0,1 -165.7560797902596,-27.366439530291263L-156.9256448645168,-31.214451522580884L-149.07936262129095,-29.65372894645184A152,152 0 0,1 -145.45493103129564,-44.12327094267863L-153.1104537171533,-46.44554836071435L-159.0842617551776,-54.001830170931555A168,168 0 0,1 -157.23219569523056,-59.178008050767666L-147.82072520180571,-61.2293491784148L-140.42968894171543,-58.16788171949406A152,152 0 0,1 -134.05203218094974,-71.65230399755205L-141.10740229573656,-75.42347789216007L-145.4922678357854,-84.00000000000047A168,168 0 0,1 -142.66596649646496,-88.7153989092623L-133.03513796840693,-88.89123728313685L-126.38338106998657,-84.44667541898A152,152 0 0,1 -117.49758891113565,-96.42777919287455L-123.68167253803753,-101.50292546618374L-126.30908765646777,-110.77009693681207A168,168 0 0,1 -122.61716421323591,-114.84350673984287L-113.13708498984711,-113.13708498984809L-107.48023074035476,-107.4802307403557A152,152 0 0,1 -96.42777919287366,-117.49758891113639L-101.5029254661828,-123.68167253803831L-102.27192007346451,-133.28336116892794A168,168 0 0,1 -97.85625307379017,-136.55824301139177L-88.89123728313577,-133.03513796840764L-84.44667541897897,-126.38338106998727A152,152 0 0,1 -71.65230399755109,-134.05203218095028L-75.42347789215904,-141.10740229573713L-74.30449995679156,-150.67462057749196A168,168 0 0,1 -69.33478100713762,-153.02512258675785L-61.22934917841366,-147.82072520180617L-58.16788171949298,-140.42968894171585A152,152 0 0,1 -44.12327094267764,-145.45493103129596L-46.4455483607133,-153.11045371715363L-43.481599577222745,-162.27553881656365A168,168 0 0,1 -38.14881218977392,-163.61133251859223L-31.214451522579747,-156.92564486451704L-29.65372894645076,-149.07936262129118A152,152 0 0,1 -14.898605330092515,-151.268078454174L-15.682742452728963,-159.22955626755157L-10.987725710663234,-167.64029910408544A168,168 0 0,1 -5.496805914057559,-167.91005069602946L8.232597597325838e-13,-160L7.820967717459546e-13,-152M0,-20A20,20 0 0,0 0,20A20,20 0 0,0 0,-20Z">
	</path>
</g>
</svg>