<?xml version="1.0" encoding="UTF-8"?>
<!DOCTYPE svg PUBLIC "-//W3C//DTD SVG 1.1//EN" "http://www.w3.org/Graphics/SVG/1.1/DTD/svg11.dtd">
<svg version="1.1" id="Layer_1" xmlns="http://www.w3.org/2000/svg" xmlns:xlink="http://www.w3.org/1999/xlink" x="0px" y="0px" width="100px" height="100px" xml:space="preserve">
<g id="sun">
	<path d="M4.408728476930472e-15,-72A72,72 0 0,1 14.04650318516124,-70.61654018903259L15.607225761290266,-78.46282243225843L22.776075969021825,-85.001472713438A88,88 0 0,1 28.28667294667821,-83.3298513955693L30.61467458920717,-73.91036260090294L27.553207130286452,-66.51932634081265A72,72 0 0,1 40.00105677741135,-59.86581208578326L44.44561864156817,-66.51756898420362L53.571005752767405,-69.8150939456287A88,88 0 0,1 58.02243172880605,-66.16190305815002L56.5685424949238,-56.568542494923804L50.91168824543142,-50.91168824543143A72,72 0 0,1 59.865812085783254,-40.001056777411364L66.51756898420362,-44.44561864156818L76.2102355330306,-44A88,88 0 0,1 78.92480125487657,-38.92140473927212L73.91036260090294,-30.614674589207187L66.51932634081264,-27.553207130286467A72,72 0 0,1 70.61654018903259,-14.046503185161242L78.46282243225843,-15.60722576129027L87.24714780089532,-11.486304915364551A88,88 0 0,1 87.8115852449971,-5.755475372252602L80,-1.1102230246251565e-14L72,-9.992007221626409e-15A72,72 0 0,1 70.61654018903259,14.046503185161226L78.46282243225843,15.607225761290252L85.001472713438,22.776075969021814A88,88 0 0,1 83.3298513955693,28.286672946678205L73.91036260090294,30.61467458920717L66.51932634081265,27.553207130286452A72,72 0 0,1 59.86581208578326,40.00105677741135L66.51756898420362,44.44561864156817L69.8150939456287,53.5710057527674A88,88 0 0,1 66.16190305815002,58.02243172880605L56.568542494923804,56.5685424949238L50.91168824543143,50.91168824543142A72,72 0 0,1 40.00105677741137,59.86581208578325L44.44561864156819,66.5175689842036L44.00000000000001,76.2102355330306A88,88 0 0,1 38.92140473927213,78.92480125487657L30.6146745892072,73.91036260090293L27.55320713028648,66.51932634081264A72,72 0 0,1 14.046503185161253,70.61654018903259L15.607225761290282,78.46282243225843L11.48630491536457,87.24714780089532A88,88 0 0,1 5.7554753722526275,87.8115852449971L4.042572398459442e-14,80L3.638315158613498e-14,72A72,72 0 0,1 -14.0465031851612,70.6165401890326L-15.607225761290222,78.46282243225845L-22.776075969021775,85.00147271343802A88,88 0 0,1 -28.286672946678166,83.32985139556932L-30.614674589207127,73.91036260090297L-27.553207130286413,66.51932634081267A72,72 0 0,1 -40.001056777411314,59.86581208578329L-44.44561864156813,66.51756898420365L-53.57100575276736,69.81509394562875A88,88 0 0,1 -58.022431728806,66.16190305815006L-56.56854249492375,56.56854249492386L-50.91168824543137,50.91168824543147A72,72 0 0,1 -59.865812085783226,40.00105677741141L-66.51756898420358,44.44561864156823L-76.21023553303057,44.00000000000007A88,88 0 0,1 -78.92480125487654,38.921404739272184L-73.91036260090291,30.614674589207254L-66.51932634081263,27.553207130286527A72,72 0 0,1 -70.61654018903258,14.046503185161322L-78.46282243225842,15.607225761290358L-87.2471478008953,11.486304915364654A88,88 0 0,1 -87.81158524499709,5.75547537225271L-80,1.1637858475719386e-13L-72,1.0474072628147447e-13A72,72 0 0,1 -70.61654018903262,-14.046503185161116L-78.46282243225846,-15.60722576129013L-85.00147271343805,-22.77607596902168A88,88 0 0,1 -83.32985139556935,-28.286672946678067L-73.910362600903,-30.61467458920704L-66.5193263408127,-27.553207130286335A72,72 0 0,1 -59.86581208578335,-40.00105677741123L-66.51756898420372,-44.44561864156803L-69.81509394562882,-53.57100575276726A88,88 0 0,1 -66.16190305815014,-58.02243172880591L-56.56854249492394,-56.56854249492366L-50.91168824543155,-50.9116882454313A72,72 0 0,1 -40.00105677741152,-59.865812085783155L-44.44561864156835,-66.5175689842035L-44.00000000000016,-76.2102355330305A88,88 0 0,1 -38.92140473927226,-78.9248012548765L-30.614674589207294,-73.9103626009029L-27.553207130286566,-66.51932634081261A72,72 0 0,1 -14.046503185161326,-70.61654018903258L-15.607225761290362,-78.46282243225842L-11.486304915364618,-87.2471478008953A88,88 0 0,1 -5.755475372252638,-87.8115852449971L-1.4695761589768237e-14,-80L-1.3226185430791413e-14,-72M0,-20A20,20 0 0,0 0,20A20,20 0 0,0 0,-20Z"> 
	</path>
</g>
<g id="planet">
	<path d="M9.307315673519884e-15,-152A152,152 0 0,1 14.898605330093236,-151.26807845417392L15.682742452729723,-159.2295562675515L21.92840029296869,-166.56273671080015A168,168 0 0,1 27.366439530290922,-165.75607979025966L31.214451522580532,-156.92564486451687L29.653728946451505,-149.079362621291A152,152 0 0,1 44.123270942678275,-145.45493103129576L46.44554836071397,-153.11045371715343L54.00183017093113,-159.08426175517775A168,168 0 0,1 59.178008050767204,-157.23219569523073L61.22934917841434,-147.82072520180589L58.16788171949362,-140.4296889417156A152,152 0 0,1 71.6523039975516,-134.05203218095L75.42347789215958,-141.10740229573682L83.99999999999996,-145.49226783578573A168,168 0 0,1 88.71539890926176,-142.6659664964653L88.89123728313629,-133.03513796840727L84.44667541897948,-126.38338106998691A152,152 0 0,1 96.42777919287407,-117.49758891113606L101.50292546618323,-123.68167253803796L110.77009693681151,-126.30908765646825A168,168 0 0,1 114.84350673984231,-122.61716421323645L113.13708498984754,-113.13708498984766L107.48023074035517,-107.48023074035528A152,152 0 0,1 117.49758891113598,-96.42777919287418L123.68167253803787,-101.50292546618334L133.28336116892746,-102.27192007346514A168,168 0 0,1 136.5582430113913,-97.85625307379084L133.03513796840718,-88.89123728313643L126.38338106998683,-84.44667541897961A152,152 0 0,1 134.0520321809499,-71.65230399755173L141.10740229573676,-75.42347789215971L150.6746205774916,-74.30449995679231A168,168 0 0,1 153.0251225867575,-69.3347810071384L147.82072520180583,-61.22934917841445L140.42968894171554,-58.16788171949373A152,152 0 0,1 145.45493103129573,-44.12327094267837L153.1104537171534,-46.44554836071407L162.27553881656343,-43.481599577223584A168,168 0 0,1 163.61133251859204,-38.148812189774794L156.92564486451684,-31.214451522580617L149.079362621291,-29.653728946451587A152,152 0 0,1 151.26807845417392,-14.898605330093302L159.2295562675515,-15.682742452729793L167.6402991040854,-10.98772571066414A168,168 0 0,1 167.91005069602943,-5.496805914058496L160,-9.992007221626409e-14L152,-9.492406860545088e-14A152,152 0 0,1 151.26807845417395,14.898605330093117L159.22955626755152,15.682742452729597L166.56273671080015,21.92840029296856A168,168 0 0,1 165.7560797902597,27.366439530290805L156.9256448645169,31.214451522580422L149.07936262129104,29.653728946451402A152,152 0 0,1 145.45493103129579,44.12327094267818L153.11045371715346,46.44554836071387L159.0842617551778,54.00183017093104A168,168 0 0,1 157.23219569523076,59.178008050767126L147.8207252018059,61.22934917841427L140.42968894171563,58.16788171949355A152,152 0 0,1 134.05203218095,71.65230399755156L141.10740229573685,75.42347789215954L145.49226783578575,83.9999999999999A168,168 0 0,1 142.6659664964653,88.71539890926172L133.0351379684073,88.89123728313626L126.38338106998692,84.44667541897945A152,152 0 0,1 117.49758891113609,96.42777919287403L123.68167253803799,101.50292546618319L126.30908765646828,110.77009693681147A168,168 0 0,1 122.61716421323648,114.84350673984227L113.1370849898477,113.13708498984751L107.48023074035531,107.48023074035513A152,152 0 0,1 96.42777919287421,117.49758891113594L101.50292546618338,123.68167253803783L102.27192007346518,133.28336116892743A168,168 0 0,1 97.85625307379087,136.55824301139126L88.89123728313648,133.03513796840716L84.44667541897965,126.3833810699868A152,152 0 0,1 71.65230399755178,134.05203218094988L75.42347789215978,141.10740229573673L74.30449995679238,150.67462057749157A168,168 0 0,1 69.33478100713849,153.02512258675745L61.22934917841454,147.8207252018058L58.167881719493806,140.4296889417155A152,152 0 0,1 44.12327094267847,145.4549310312957L46.44554836071418,153.11045371715335L43.4815995772237,162.27553881656343A168,168 0 0,1 38.14881218977492,163.611332518592L31.21445152258074,156.92564486451684L29.653728946451704,149.07936262129098A152,152 0 0,1 14.898605330093437,151.2680784541739L15.682742452729935,159.22955626755146L10.987725710664293,167.64029910408536A168,168 0 0,1 5.4968059140586565,167.91005069602943L2.584871319092139e-13,160L2.455627753137532e-13,152A152,152 0 0,1 -14.89860533009295,151.26807845417395L-15.682742452729421,159.22955626755152L-21.92840029296837,166.56273671080018A168,168 0 0,1 -27.36643953029061,165.75607979025972L-31.214451522580234,156.92564486451693L-29.653728946451224,149.07936262129107A152,152 0 0,1 -44.123270942678,145.4549310312958L-46.44554836071368,153.1104537171535L-54.00183017093083,159.08426175517786A168,168 0 0,1 -59.178008050766906,157.23219569523084L-61.229349178414054,147.820725201806L-58.16788171949335,140.4296889417157A152,152 0 0,1 -71.65230399755134,134.0520321809501L-75.42347789215931,141.10740229573696L-83.99999999999972,145.49226783578584A168,168 0 0,1 -88.71539890926157,142.66596649646542L-88.89123728313614,133.03513796840738L-84.44667541897932,126.38338106998701A152,152 0 0,1 -96.42777919287393,117.49758891113616L-101.50292546618309,123.68167253803806L-110.7700969368114,126.30908765646835A168,168 0 0,1 -114.84350673984224,122.61716421323653L-113.1370849898475,113.13708498984772L-107.48023074035511,107.48023074035534A152,152 0 0,1 -117.49758891113594,96.42777919287421L-123.68167253803783,101.50292546618338L-133.28336116892743,102.27192007346517A168,168 0 0,1 -136.5582430113913,97.85625307379084L-133.0351379684072,88.8912372831364L-126.38338106998684,84.44667541897958A152,152 0 0,1 -134.05203218094994,71.65230399755167L-141.1074022957368,75.42347789215965L-150.67462057749162,74.30449995679221A168,168 0 0,1 -153.02512258675756,69.33478100713829L-147.82072520180589,61.22934917841431L-140.4296889417156,58.16788171949359A152,152 0 0,1 -145.45493103129579,44.12327094267822L-153.11045371715346,46.445548360713914L-162.27553881656348,43.481599577223385A168,168 0 0,1 -163.6113325185921,38.14881218977457L-156.9256448645169,31.21445152258037L-149.07936262129107,29.653728946451352A152,152 0 0,1 -151.26807845417395,14.898605330093044L-159.22955626755152,15.68274245272952L-167.64029910408541,10.98772571066382A168,168 0 0,1 -167.91005069602943,5.496805914058145L-160,-2.646227455176824e-13L-152,-2.513916082417983e-13A152,152 0 0,1 -151.2680784541739,-14.898605330093478L-159.22955626755146,-15.682742452729975L-166.5627367108001,-21.92840029296899A168,168 0 0,1 -165.7560797902596,-27.366439530291263L-156.9256448645168,-31.214451522580884L-149.07936262129095,-29.65372894645184A152,152 0 0,1 -145.45493103129564,-44.12327094267863L-153.1104537171533,-46.44554836071435L-159.0842617551776,-54.001830170931555A168,168 0 0,1 -157.23219569523056,-59.178008050767666L-147.82072520180571,-61.2293491784148L-140.42968894171543,-58.16788171949406A152,152 0 0,1 -134.05203218094974,-71.65230399755205L-141.10740229573656,-75.42347789216007L-145.4922678357854,-84.00000000000047A168,168 0 0,1 -142.66596649646496,-88.7153989092623L-133.03513796840693,-88.89123728313685L-126.38338106998657,-84.44667541898A152,152 0 0,1 -117.49758891113565,-96.42777919287455L-123.68167253803753,-101.50292546618374L-126.30908765646777,-110.77009693681207A168,168 0 0,1 -122.61716421323591,-114.84350673984287L-113.13708498984711,-113.13708498984809L-107.48023074035476,-107.4802307403557A152,152 0 0,1 -96.42777919287366,-117.49758891113639L-101.5029254661828,-123.68167253803831L-102.27192007346451,-133.28336116892794A168,168 0 0,1 -97.85625307379017,-136.55824301139177L-88.89123728313577,-133.03513796840764L-84.44667541897897,-126.38338106998727A152,152 0 0,1 -71.65230399755109,-134.05203218095028L-75.42347789215904,-141.10740229573713L-74.30449995679156,-150.67462057749196A168,168 0 0,1 -69.33478100713762,-153.02512258675785L-61.22934917841366,-147.82072520180617L-58.16788171949298,-140.42968894171585A152,152 0 0,1 -44.12327094267764,-145.45493103129596L-46.4455483607133,-153.11045371715363L-43.481599577222745,-162.27553881656365A168,168 0 0,1 -38.14881218977392,-163.61133251859223L-31.214451522579747,-156.92564486451704L-29.65372894645076,-149.07936262129118A152,152 0 0,1 -14.898605330092515,-151.268078454174L-15.682742452728963,-159.22955626755157L-10.987725710663234,-167.64029910408544A168,168 0 0,1 -5.496805914057559,-167.91005069602946L8.232597597325838e-13,-160L7.820967717459546e-13,-152M0,-20A20,20 0 0,0 0,20A20,20 0 0,0 0,-20Z">
	</path>
</g>
<g id="annulus">
	<path d="M16.018004829700015,-407.6854467862149A408,408 0 0,1 32.01131105696076,-406.7422721631162L31.383638291138,-398.7669334932512L35.86863451605379,-390.3555316092674A392,392 0 0,1 40.97515760092024,-389.85258298436315L47.014958983135166,-397.2273827819705L47.955258162797875,-405.17193043760994A408,408 0 0,1 63.825261736414305,-402.9768429628162L62.573786016092455,-395.07533623805506L66.38500550881778,-386.33797515076645A392,392 0 0,1 71.43632599292197,-385.4359237650702L78.0361288064515,-392.31411216129214L79.59685138258052,-400.16039440451794A408,408 0 0,1 95.2457084532096,-396.72692752225197L93.37814554236236,-388.94796815907057L96.49209086736548,-379.9385166050477A392,392 0 0,1 101.45706568018839,-378.6429239053147L108.57617994602997,-384.9820945814588L110.74770354495057,-392.681736473088A408,408 0 0,1 126.07893370497884,-388.0310586484226L123.60679774997925,-380.42260651806134L126.00427039883962,-371.1966107620813A392,392 0 0,1 130.85228881963852,-369.5154645081338L138.44682283099755,-375.2765343689935L141.2157592876175,-382.7820650563734A408,408 0 0,1 156.13484040495698,-376.94284926460483L153.07337294603624,-369.55181300451454L154.73959170263313,-360.16615437836793A392,392 0 0,1 159.44076408571408,-358.10981939589936L167.46389501497165,-363.2572695300323L170.81317291527108,-370.52241492063297A408,408 0 0,1 185.2281238937355,-363.5306618688539L181.59619989581913,-356.4026096753469L182.5208919674441,-346.9151538855122A392,392 0 0,1 187.04623402176696,-344.49630816349014L195.44849659878244,-348.99840282911856L199.3574665307581,-355.97837088570094A408,408 0 0,1 213.1794144041076,-347.8771870564693L208.99942588638,-341.0560657416366L209.17689023892018,-331.5253061079572A392,392 0 0,1 213.4985017258911,-328.7588626346059L222.22809320784137,-332.5878449210178L226.67265507199818,-339.2396018194381A408,408 0 0,1 239.8163829353295,-330.0789337049782L235.11410091698968,-323.6067977499787L234.54324342369875,-314.0914945748955A392,392 0 0,1 238.6344801714189,-310.99450939416386L247.63757972393398,-314.1267723522977L252.59033131841267,-320.4093077993436A408,408 0 0,1 264.97480371871535,-310.2456339648123L259.77921933207386,-304.16238624001204L258.4635595192273,-294.7212045317588A392,392 0 0,1 262.2991976926728,-291.31277158713823L271.520298213177,-293.7290037742739L276.95070417744057,-299.6035838497594A408,408 0 0,1 288.49956672411173,-288.49956672411105L282.84271247461936,-282.8427124746187L280.7903618224648,-273.5338602579383A392,392 0 0,1 284.34675343681704,-269.8349936719513L293.7290037742745,-271.5202982131764L299.60358384975996,-276.95070417743995A408,408 0 0,1 310.2456339648129,-264.9748037187146L304.16238624001267,-259.7792193320731L301.38599817279635,-250.66008877638893A392,392 0 0,1 304.6412168911328,-246.693593291536L314.1267723522982,-247.63757972393333L320.40930779934416,-252.59033131841198A408,408 0 0,1 330.0789337049788,-239.81638293532873L323.6067977499792,-235.11410091698895L320.12348962337836,-226.24091449459533A392,392 0 0,1 323.0574659398303,-222.0312448745342L332.58784492101825,-222.2280932078406L339.23960181943863,-226.6726550719974A408,408 0 0,1 347.8771870564698,-213.17941440410684L341.05606574163704,-208.99942588637924L336.88731330856956,-200.4268897422042A392,392 0 0,1 339.4819582835001,-195.99999999999977L348.99840282911896,-195.44849659878173L355.97837088570134,-199.35746653075736A408,408 0 0,1 363.53066186885417,-185.22812389373485L356.40260967534726,-181.59619989581847L351.5741146808139,-173.37716656584826A392,392 0 0,1 353.81343146514547,-168.76034994885143L363.25726953003266,-167.46389501497097L370.5224149206333,-170.81317291527037A408,408 0 0,1 376.9428492646051,-156.13484040495635L369.5518130045148,-153.07337294603565L364.0933447257944,-145.25851550385553A392,392 0 0,1 365.9635271869032,-140.48023622175742L375.27653436899374,-138.4468228309969L382.78206505637365,-141.21575928761683A408,408 0 0,1 388.0310586484228,-126.07893370497824L380.42260651806157,-123.60679774997867L374.36781822721724,-116.2442973904235A392,392 0 0,1 375.8573360683318,-111.33401512393735L384.982094581459,-108.57617994602937L392.68173647308816,-110.74770354494996A408,408 0 0,1 396.72692752225214,-95.24570845320908L388.9479681590707,-93.37814554236184L382.33418963933707,-86.51339452842811A392,392 0 0,1 383.4338594876519,-81.50138280056134L392.31411216129226,-78.03612880645099L400.1603944045181,-79.59685138258001A408,408 0 0,1 402.97684296281625,-63.825261736413864L395.0753362380552,-62.57378601609203L387.9433436333108,-56.24910782054198A392,392 0 0,1 388.6463856585337,-51.166267350259915L397.22738278197056,-47.01495898313474L405.17193043760994,-47.955258162797435A408,408 0 0,1 406.74227216311624,-32.011311056960416L398.76693349325126,-31.38363829113766L391.1606979095326,-25.63802665821577A392,392 0 0,1 391.462777623793,-20.51569484723367L399.6916144962892,-15.703926303627128L407.685446786215,-16.01800482969967A408,408 0 0,1 408,3.22741833258533e-13L400,3.164135620181696e-13L391.9664164090107,5.131121463967331A392,392 0 0,1 391.86567139041847,10.261363736686585L399.69161449628916,15.70392630362776L407.6854467862149,16.018004829700317A408,408 0 0,1 406.7422721631162,32.01131105696106L398.7669334932512,31.383638291138293L390.35553160926736,35.868634516054044A392,392 0 0,1 389.85258298436315,40.97515760092047L397.22738278197045,47.01495898313537L405.1719304376099,47.95525816279808A408,408 0 0,1 402.97684296281614,63.82526173641451L395.075336238055,62.57378601609266L386.33797515076645,66.38500550881795A392,392 0 0,1 385.43592376507013,71.43632599292211L392.31411216129214,78.03612880645161L400.16039440451794,79.59685138258064A408,408 0 0,1 396.72692752225197,95.24570845320972L388.94796815907057,93.37814554236246L379.93851660504765,96.49209086736556A392,392 0 0,1 378.6429239053147,101.4570656801884L384.9820945814588,108.57617994603L392.681736473088,110.7477035449506A408,408 0 0,1 388.0310586484226,126.07893370497885L380.42260651806134,123.60679774997926L371.1966107620813,126.00427039883962A392,392 0 0,1 369.5154645081338,130.8522888196385L375.2765343689935,138.4468228309975L382.7820650563734,141.21575928761746A408,408 0 0,1 376.94284926460483,156.13484040495692L369.55181300451454,153.07337294603622L360.166154378368,154.73959170263305A392,392 0 0,1 358.1098193958994,159.440764085714L363.2572695300324,167.46389501497154L370.522414920633,170.81317291527097A408,408 0 0,1 363.53066186885394,185.22812389373541L356.402609675347,181.59619989581904L346.91515388551227,182.520891967444A392,392 0 0,1 344.49630816349026,187.04623402176682L348.9984028291187,195.44849659878227L355.97837088570105,199.35746653075793A408,408 0 0,1 347.87718705646944,213.17941440410743L341.0560657416367,208.99942588637984L331.5253061079573,209.17689023892A392,392 0 0,1 328.75886263460603,213.4985017258909L332.5878449210179,222.22809320784114L339.2396018194383,226.67265507199795A408,408 0 0,1 330.0789337049784,239.81638293532927L323.6067977499788,235.11410091698949L314.0914945748956,234.54324342369856A392,392 0 0,1 310.994509394164,238.63448017141872L314.1267723522978,247.6375797239338L320.40930779934376,252.5903313184125A408,408 0 0,1 310.24563396481244,264.9748037187151L304.1623862400122,259.77921933207364L294.721204531759,258.46355951922715A392,392 0 0,1 291.3127715871384,262.2991976926726L293.7290037742741,271.52029821317683L299.60358384975956,276.9507041774404A408,408 0 0,1 288.4995667241112,288.49956672411156L282.84271247461885,282.84271247461913L273.53386025793844,280.7903618224646A392,392 0 0,1 269.83499367195145,284.34675343681687L271.5202982131766,293.7290037742743L276.9507041774401,299.6035838497598A408,408 0 0,1 264.9748037187148,310.2456339648127L259.77921933207335,304.16238624001244L250.6600887763891,301.38599817279623A392,392 0 0,1 246.69359329153616,304.6412168911327L247.6375797239335,314.126772352298L252.59033131841215,320.409307799344A408,408 0 0,1 239.81638293532896,330.0789337049786L235.11410091698917,323.606797749979L226.2409144945955,320.1234896233782A392,392 0 0,1 222.0312448745344,323.0574659398302L222.22809320784083,332.58784492101813L226.67265507199764,339.2396018194385A408,408 0 0,1 213.17941440410706,347.87718705646967L208.99942588637947,341.0560657416369L200.4268897422043,336.8873133085695A392,392 0 0,1 195.9999999999999,339.48195828350003L195.44849659878182,348.9984028291189L199.35746653075748,355.9783708857013A408,408 0 0,1 185.22812389373493,363.53066186885417L181.59619989581856,356.4026096753472L173.37716656584834,351.57411468081386A392,392 0 0,1 168.76034994885148,353.81343146514547L167.463895014971,363.25726953003266L170.81317291527043,370.5224149206333A408,408 0 0,1 156.13484040495638,376.94284926460506L153.07337294603568,369.55181300451477L145.25851550385556,364.0933447257944A392,392 0 0,1 140.48023622175742,365.9635271869032L138.44682283099687,375.27653436899374L141.2157592876168,382.78206505637365A408,408 0 0,1 126.07893370497823,388.0310586484228L123.60679774997865,380.42260651806157L116.24429739042348,374.36781822721724A392,392 0 0,1 111.33401512393729,375.8573360683318L108.57617994602928,384.982094581459L110.74770354494987,392.6817364730882A408,408 0 0,1 95.24570845320899,396.7269275222522L93.37814554236175,388.94796815907074L86.513394528428,382.33418963933707A392,392 0 0,1 81.50138280056119,383.43385948765194L78.0361288064508,392.31411216129226L79.59685138257983,400.1603944045181A408,408 0 0,1 63.82526173641369,402.97684296281625L62.573786016091844,395.0753362380552L56.24910782054176,387.9433436333108A392,392 0 0,1 51.16626735025967,388.64638565853375L47.01495898313446,397.2273827819706L47.95525816279715,405.17193043761A408,408 0 0,1 32.01131105696013,406.74227216311624L31.383638291137384,398.76693349325126L25.63802665821547,391.1606979095326A392,392 0 0,1 20.515694847233338,391.462777623793L15.703926303626758,399.6916144962892L16.018004829699294,407.685446786215A408,408 0 0,1 -6.997707957726962e-13,408L-6.860497997771532e-13,400L-5.131121463967721,391.9664164090107A392,392 0 0,1 -10.261363736687006,391.86567139041847L-15.703926303628219,399.69161449628916L-16.018004829700782,407.6854467862149A408,408 0 0,1 -32.011311056961524,406.7422721631162L-31.383638291138748,398.76693349325114L-35.86863451605452,390.3555316092673A392,392 0 0,1 -40.97515760092097,389.85258298436304L-47.01495898313591,397.22738278197045L-47.95525816279863,405.17193043760983A408,408 0 0,1 -63.825261736415065,402.9768429628161L-62.5737860160932,395.075336238055L-66.38500550881851,386.3379751507663A392,392 0 0,1 -71.43632599292269,385.43592376507L-78.03612880645224,392.314112161292L-79.59685138258129,400.16039440451783A408,408 0 0,1 -95.24570845321036,396.7269275222518L-93.37814554236309,388.9479681590704L-96.4920908673662,379.9385166050475A392,392 0 0,1 -101.45706568018909,378.6429239053145L-108.5761799460307,384.9820945814586L-110.74770354495132,392.6817364730878A408,408 0 0,1 -126.07893370497956,388.03105864842234L-123.60679774997996,380.4226065180611L-126.00427039884032,371.1966107620811A392,392 0 0,1 -130.85228881963923,369.51546450813356L-138.44682283099826,375.2765343689933L-141.21575928761823,382.78206505637314A408,408 0 0,1 -156.13484040495769,376.94284926460455L-153.07337294603695,369.55181300451426L-154.7395917026338,360.1661543783677A392,392 0 0,1 -159.44076408571476,358.1098193958991L-167.46389501497225,363.25726953003203L-170.8131729152717,370.5224149206327A408,408 0 0,1 -185.228123893736,363.5306618688536L-181.59619989581964,356.4026096753467L-182.52089196744458,346.9151538855119A392,392 0 0,1 -187.04623402176742,344.4963081634899L-195.44849659878295,348.9984028291183L-199.35746653075861,355.97837088570066A408,408 0 0,1 -213.1794144041082,347.877187056469L-208.99942588638058,341.05606574163625L-209.17689023892075,331.5253061079569A392,392 0 0,1 -213.49850172589166,328.7588626346055L-222.228093207842,332.5878449210174L-226.67265507199883,339.2396018194377A408,408 0 0,1 -239.81638293533018,330.0789337049777L-235.11410091699037,323.6067977499781L-234.54324342369944,314.09149457489497A392,392 0 0,1 -238.63448017141963,310.9945093941633L-247.63757972393475,314.12677235229705L-252.59033131841343,320.40930779934297A408,408 0 0,1 -264.97480371871615,310.2456339648116L-259.77921933207466,304.16238624001136L-258.46355951922817,294.7212045317581A392,392 0 0,1 -262.2991976926736,291.31277158713743L-271.5202982131779,293.7290037742731L-276.9507041774415,299.6035838497586A408,408 0 0,1 -288.49956672411264,288.49956672411014L-282.8427124746202,282.84271247461777L-280.7903618224657,273.53386025793736A392,392 0 0,1 -284.34675343681795,269.83499367195026L-293.72900377427544,271.52029821317535L-299.603583849761,276.95070417743887A408,408 0 0,1 -310.24563396481386,264.9748037187134L-304.16238624001363,259.779219332072L-301.3859981727974,250.66008877638777A392,392 0 0,1 -304.6412168911338,246.69359329153477L-314.1267723522992,247.63757972393202L-320.4093077993452,252.59033131841068A408,408 0 0,1 -330.07893370497976,239.8163829353273L-323.60679774998016,235.11410091698758L-320.1234896233793,226.24091449459388A392,392 0 0,1 -323.05746593983133,222.03124487453272L-332.58784492101927,222.2280932078391L-339.23960181943966,226.67265507199588A408,408 0 0,1 -347.87718705647086,213.17941440410516L-341.05606574163806,208.99942588637762L-336.8873133085706,200.4268897422025A392,392 0 0,1 -339.4819582835011,195.999999999998L-348.99840282912,195.4484965987799L-355.97837088570236,199.35746653075552A408,408 0 0,1 -363.53066186885525,185.22812389373289L-356.4026096753483,181.59619989581654L-351.5741146808149,173.37716656584632A392,392 0 0,1 -353.81343146514644,168.76034994884947L-363.25726953003357,167.46389501496895L-370.5224149206342,170.81317291526832A408,408 0 0,1 -376.942849264606,156.13484040495416L-369.55181300451574,153.0733729460335L-364.09334472579525,145.25851550385337A392,392 0 0,1 -365.96352718690406,140.48023622175523L-375.2765343689946,138.44682283099465L-382.7820650563745,141.21575928761456A408,408 0 0,1 -388.03105864842354,126.07893370497584L-380.4226065180623,123.60679774997632L-374.367818227218,116.24429739042117A392,392 0 0,1 -375.8573360683325,111.33401512393498L-384.9820945814597,108.57617994602693L-392.6817364730889,110.74770354494747A408,408 0 0,1 -396.72692752225277,95.24570845320646L-388.9479681590713,93.37814554235926L-382.33418963933764,86.51339452842556A392,392 0 0,1 -383.43385948765246,81.50138280055876L-392.31411216129277,78.0361288064483L-400.1603944045186,79.59685138257727A408,408 0 0,1 -402.9768429628167,63.82526173641102L-395.07533623805557,62.57378601608924L-387.94334363331114,56.2491078205392A392,392 0 0,1 -388.6463856585341,51.16626735025711L-397.2273827819709,47.01495898313184L-405.17193043761034,47.95525816279448A408,408 0 0,1 -406.74227216311647,32.011311056957354L-398.76693349325143,31.383638291134663L-391.16069790953276,25.6380266582128A392,392 0 0,1 -391.4627776237931,20.515694847230666L-399.6916144962893,15.70392630362403L-407.6854467862151,16.018004829696512A408,408 0 0,1 -408,-3.5738023629712992e-12L-400,-3.503727806834607e-12L-391.9664164090107,-5.131121463970483A392,392 0 0,1 -391.86567139041836,-10.261363736689766L-399.69161449628905,-15.703926303631032L-407.6854467862148,-16.018004829703653A408,408 0 0,1 -406.74227216311596,-32.01131105696448L-398.7669334932509,-31.383638291141647L-390.3555316092671,-35.868634516057355A392,392 0 0,1 -389.85258298436275,-40.97515760092381L-397.22738278197005,-47.0149589831388L-405.1719304376095,-47.95525816280158A408,408 0 0,1 -402.97684296281557,-63.82526173641808L-395.0753362380545,-62.57378601609616L-386.3379751507658,-66.38500550882141A392,392 0 0,1 -385.4359237650695,-71.43632599292557L-392.3141121612914,-78.03612880645517L-400.16039440451726,-79.59685138258428A408,408 0 0,1 -396.72692752225106,-95.24570845321341L-388.9479681590697,-93.37814554236608L-379.93851660504674,-96.49209086736913A392,392 0 0,1 -378.64292390531375,-101.457065680192L-384.9820945814578,-108.57617994603366L-392.68173647308697,-110.74770354495433A408,408 0 0,1 -388.0310586484213,-126.07893370498263L-380.42260651806015,-123.60679774998297L-371.19661076208007,-126.00427039884327A392,392 0 0,1 -369.51546450813254,-130.85228881964215L-375.27653436899215,-138.4468228310012L-382.782065056372,-141.21575928762124A408,408 0 0,1 -376.9428492646033,-156.13484040496076L-369.551813004513,-153.07337294603997L-360.16615437836646,-154.73959170263674A392,392 0 0,1 -358.1098193958978,-159.44076408571766L-363.2572695300306,-167.4638950149753L-370.52241492063126,-170.8131729152748A408,408 0 0,1 -363.53066186885195,-185.22812389373925L-356.40260967534505,-181.5961998958228L-346.91515388551034,-182.52089196744765A392,392 0 0,1 -344.49630816348827,-187.0462340217705L-348.99840282911657,-195.44849659878602L-355.9783708856989,-199.35746653076174A408,408 0 0,1 -347.8771870564671,-213.17941440411127L-341.0560657416344,-208.99942588638362L-331.52530610795503,-209.17689023892368A392,392 0 0,1 -328.75886263460364,-213.49850172589458L-332.5878449210154,-222.22809320784492L-339.23960181943573,-226.67265507200182A408,408 0 0,1 -330.0789337049756,-239.81638293533308L-323.60679774997607,-235.1141009169932L-314.09149457489286,-234.54324342370222A392,392 0 0,1 -310.99450939416124,-238.63448017142238L-314.1267723522949,-247.63757972393753L-320.40930779934075,-252.5903313184163A408,408 0 0,1 -310.24563396480926,-264.9748037187189L-304.1623862400091,-259.77921933207733L-294.7212045317558,-258.4635595192308A392,392 0 0,1 -291.31277158713516,-262.29919769267616L-293.7290037742707,-271.52029821318047L-299.60358384975615,-276.9507041774441A408,408 0 0,1 -288.4995667241076,-288.4995667241152L-282.8427124746153,-282.8427124746227L-273.5338602579349,-280.79036182246807A392,392 0 0,1 -269.8349936719478,-284.34675343682034L-271.52029821317274,-293.7290037742779L-276.9507041774362,-299.6035838497634A408,408 0 0,1 -264.97480371871075,-310.24563396481625L-259.7792193320693,-304.1623862400159L-250.6600887763851,-301.38599817279953A392,392 0 0,1 -246.69359329153207,-304.64121689113597L-247.63757972392924,-314.1267723523014L-252.59033131840783,-320.4093077993474A408,408 0 0,1 -239.8163829353244,-330.0789337049819L-235.11410091698474,-323.60679774998226L-226.24091449459107,-320.1234896233813A392,392 0 0,1 -222.0312448745299,-323.05746593983326L-222.22809320783617,-332.58784492102126L-226.6726550719929,-339.23960181944165A408,408 0 0,1 -213.1794144041021,-347.87718705647274L-208.99942588637458,-341.05606574163994L-200.42688974219953,-336.88731330857235A392,392 0 0,1 -195.99999999999503,-339.4819582835028L-195.44849659877684,-348.9984028291217L-199.35746653075236,-355.9783708857041A408,408 0 0,1 -185.22812389372967,-363.53066186885684L-181.59619989581338,-356.4026096753499L-173.37716656584323,-351.5741146808164A392,392 0 0,1 -168.76034994884637,-353.8134314651479L-167.46389501496571,-363.2572695300351L-170.81317291526503,-370.52241492063575A408,408 0 0,1 -156.13484040495084,-376.9428492646074L-153.07337294603022,-369.55181300451704L-145.2585155038502,-364.09334472579656A392,392 0 0,1 -140.48023622175202,-365.96352718690525L-138.44682283099135,-375.2765343689958L-141.21575928761118,-382.7820650563757A408,408 0 0,1 -126.07893370497243,-388.0310586484246L-123.60679774997297,-380.4226065180634L-116.24429739041787,-374.367818227219A392,392 0 0,1 -111.33401512393166,-375.85733606833344L-108.57617994602353,-384.9820945814606L-110.747703544944,-392.68173647308987A408,408 0 0,1 -95.24570845320295,-396.7269275222536L-93.37814554235584,-388.94796815907216L-86.51339452842218,-382.3341896393384A392,392 0 0,1 -81.50138280055538,-383.43385948765314L-78.03612880644484,-392.31411216129345L-79.59685138257373,-400.1603944045193A408,408 0 0,1 -63.82526173640747,-402.9768429628173L-62.573786016085755,-395.07533623805614L-56.249107820535784,-387.94334363331166A392,392 0 0,1 -51.166267350253676,-388.64638565853454L-47.01495898312834,-397.2273827819713L-47.955258162790905,-405.17193043761074A408,408 0 0,1 -32.011311056953765,-406.74227216311675L-31.383638291131145,-398.7669334932517L-25.638026658209352,-391.160697909533A392,392 0 0,1 -20.515694847227216,-391.46277762379333L-15.703926303620506,-399.69161449628945L-16.018004829692917,-407.6854467862152A408,408 0 0,1 7.172587520645204e-12,-408L7.031948549652161e-12,-400L5.13112146397394,-391.96641640901066A392,392 0 0,1 10.261363736693223,-391.8656713904183L15.703926303634558,-399.6916144962889L16.018004829707248,-407.6854467862147M0,-420A420,420 0 0,0 0,420A420,420 0 0,0 0,-420Z">
	</path>
</g>
</svg>
